<svg width="200" height="200" viewBox="0 0 200 200" xmlns="http://www.w3.org/2000/svg"><title>binary</title><path d="M8.246 53.573v-7.579h10.741V19.437l-9.555 3.757-1.384-7.974 13.18-4.481h6.524v35.255h9.357v7.579zM79.578 32.09c0-3.031-.132-5.514-.395-7.447-.264-1.933-.681-3.46-1.252-4.58s-1.274-1.889-2.109-2.306c-.835-.417-1.823-.626-2.965-.626-.967 0-1.856.23-2.67.692-.812.461-1.515 1.241-2.108 2.34-.593 1.098-1.054 2.591-1.384 4.48-.33 1.89-.494 4.24-.494 7.051 0 2.988.12 5.47.362 7.447.242 1.977.626 3.547 1.154 4.712.527 1.164 1.219 1.988 2.075 2.47.857.484 1.9.726 3.13.726 1.055 0 2-.253 2.834-.758.835-.505 1.527-1.351 2.076-2.537.55-1.186.977-2.735 1.285-4.646.307-1.911.461-4.25.461-7.018zm9.094-.264c0 3.954-.44 7.359-1.318 10.214-.878 2.856-2.065 5.184-3.558 6.986-1.494 1.8-3.207 3.13-5.14 3.986a14.958 14.958 0 0 1-6.129 1.285c-2.416 0-4.58-.362-6.49-1.087-1.912-.725-3.526-1.944-4.844-3.657-1.318-1.714-2.329-3.998-3.032-6.854-.703-2.855-1.054-6.436-1.054-10.74 0-3.735.395-6.975 1.186-9.72.791-2.747 1.9-5.031 3.328-6.854 1.428-1.823 3.13-3.174 5.107-4.053 1.977-.879 4.152-1.318 6.524-1.318 2.416 0 4.58.384 6.491 1.153 1.911.77 3.526 2.01 4.843 3.723 1.318 1.714 2.329 3.954 3.032 6.722.703 2.768 1.054 6.173 1.054 10.214zm21.382 21.747v-7.579h10.741V19.437l-9.555 3.757-1.384-7.974 13.18-4.481h6.524v35.255h9.357v7.579zm72.534-21.483c0-3.031-.131-5.514-.395-7.447-.264-1.933-.68-3.46-1.252-4.58-.571-1.12-1.274-1.889-2.109-2.306-.834-.417-1.823-.626-2.965-.626-.967 0-1.856.23-2.669.692-.813.461-1.516 1.241-2.109 2.34-.593 1.098-1.054 2.591-1.384 4.48-.33 1.89-.494 4.24-.494 7.051 0 2.988.121 5.47.363 7.447.241 1.977.626 3.547 1.153 4.712.527 1.164 1.219 1.988 2.076 2.47.856.484 1.9.726 3.13.726 1.054 0 1.999-.253 2.833-.758.835-.505 1.527-1.351 2.076-2.537.55-1.186.978-2.735 1.285-4.646.308-1.911.461-4.25.461-7.018zm9.094-.264c0 3.954-.439 7.359-1.318 10.214-.878 2.856-2.064 5.184-3.558 6.986-1.494 1.8-3.207 3.13-5.14 3.986a14.958 14.958 0 0 1-6.129 1.285c-2.416 0-4.58-.362-6.49-1.087-1.912-.725-3.526-1.944-4.844-3.657-1.318-1.714-2.328-3.998-3.031-6.854-.703-2.855-1.055-6.436-1.055-10.74 0-3.735.396-6.975 1.186-9.72.791-2.747 1.9-5.031 3.328-6.854 1.428-1.823 3.13-3.174 5.107-4.053 1.977-.879 4.152-1.318 6.524-1.318 2.417 0 4.58.384 6.491 1.153 1.911.77 3.526 2.01 4.844 3.723 1.318 1.714 2.328 3.954 3.031 6.722.703 2.768 1.054 6.173 1.054 10.214zM8.246 189.098v-7.578h10.741v-26.557l-9.555 3.757-1.384-7.974 13.18-4.481h6.524v35.255h9.357v7.578zm71.332-21.482c0-3.032-.132-5.514-.395-7.447-.264-1.933-.681-3.46-1.252-4.58s-1.274-1.889-2.109-2.306c-.835-.417-1.823-.626-2.965-.626-.967 0-1.856.23-2.67.692-.812.461-1.515 1.24-2.108 2.34-.593 1.098-1.054 2.591-1.384 4.48-.33 1.89-.494 4.24-.494 7.051 0 2.988.12 5.47.362 7.447.242 1.977.626 3.547 1.154 4.712.527 1.164 1.219 1.987 2.075 2.47.857.484 1.9.726 3.13.726 1.055 0 2-.253 2.834-.758.835-.505 1.527-1.351 2.076-2.537.55-1.186.977-2.735 1.285-4.646.307-1.911.461-4.25.461-7.018zm9.094-.264c0 3.954-.44 7.359-1.318 10.214-.878 2.856-2.065 5.184-3.558 6.986-1.494 1.8-3.207 3.13-5.14 3.986a14.958 14.958 0 0 1-6.129 1.285c-2.416 0-4.58-.362-6.49-1.087-1.912-.725-3.526-1.944-4.844-3.657-1.318-1.714-2.329-3.998-3.032-6.854-.703-2.855-1.054-6.436-1.054-10.741 0-3.734.395-6.974 1.186-9.72.791-2.746 1.9-5.03 3.328-6.853 1.428-1.824 3.13-3.174 5.107-4.053 1.977-.879 4.152-1.318 6.524-1.318 2.416 0 4.58.384 6.491 1.153 1.911.769 3.526 2.01 4.843 3.723 1.318 1.714 2.329 3.954 3.032 6.722.703 2.768 1.054 6.172 1.054 10.214zm21.382 21.746v-7.578h10.741v-26.557l-9.555 3.757-1.384-7.974 13.18-4.481h6.524v35.255h9.357v7.578zm72.534-21.482c0-3.032-.131-5.514-.395-7.447-.264-1.933-.68-3.46-1.252-4.58-.571-1.12-1.274-1.889-2.109-2.306-.834-.417-1.823-.626-2.965-.626-.967 0-1.856.23-2.669.692-.813.461-1.516 1.24-2.109 2.34-.593 1.098-1.054 2.591-1.384 4.48-.33 1.89-.494 4.24-.494 7.051 0 2.988.121 5.47.363 7.447.241 1.977.626 3.547 1.153 4.712.527 1.164 1.219 1.987 2.076 2.47.856.484 1.9.726 3.13.726 1.054 0 1.999-.253 2.833-.758.835-.505 1.527-1.351 2.076-2.537.55-1.186.978-2.735 1.285-4.646.308-1.911.461-4.25.461-7.018zm9.094-.264c0 3.954-.439 7.359-1.318 10.214-.878 2.856-2.064 5.184-3.558 6.986-1.494 1.8-3.207 3.13-5.14 3.986a14.958 14.958 0 0 1-6.129 1.285c-2.416 0-4.58-.362-6.49-1.087-1.912-.725-3.526-1.944-4.844-3.657-1.318-1.714-2.328-3.998-3.031-6.854-.703-2.855-1.055-6.436-1.055-10.741 0-3.734.396-6.974 1.186-9.72.791-2.746 1.9-5.03 3.328-6.853 1.428-1.824 3.13-3.174 5.107-4.053 1.977-.879 4.152-1.318 6.524-1.318 2.417 0 4.58.384 6.491 1.153 1.911.769 3.526 2.01 4.844 3.723 1.318 1.714 2.328 3.954 3.031 6.722.703 2.768 1.054 6.172 1.054 10.214zM28.674 99.801c0-3.03-.132-5.513-.395-7.446-.264-1.933-.681-3.46-1.252-4.58s-1.274-1.89-2.109-2.306c-.835-.418-1.823-.626-2.965-.626a5.32 5.32 0 0 0-2.67.691c-.812.462-1.515 1.242-2.108 2.34-.593 1.098-1.054 2.592-1.384 4.48-.33 1.89-.494 4.24-.494 7.052 0 2.987.12 5.47.362 7.446.242 1.977.626 3.548 1.154 4.712.527 1.164 1.219 1.988 2.075 2.471.857.484 1.9.725 3.13.725 1.055 0 2-.252 2.834-.758.835-.505 1.527-1.35 2.076-2.537.549-1.186.977-2.734 1.285-4.645.307-1.912.461-4.25.461-7.019zm9.094-.263c0 3.954-.44 7.358-1.318 10.214-.879 2.856-2.065 5.184-3.558 6.985-1.494 1.801-3.207 3.13-5.14 3.987a14.958 14.958 0 0 1-6.129 1.285c-2.416 0-4.58-.362-6.49-1.087-1.912-.725-3.526-1.944-4.844-3.658-1.318-1.713-2.329-3.997-3.032-6.853-.703-2.856-1.054-6.436-1.054-10.741 0-3.735.395-6.975 1.186-9.72.79-2.746 1.9-5.03 3.328-6.854 1.428-1.823 3.13-3.174 5.107-4.052 1.977-.88 4.152-1.318 6.524-1.318 2.416 0 4.58.384 6.49 1.153 1.912.769 3.526 2.01 4.844 3.723 1.318 1.713 2.329 3.954 3.032 6.722.703 2.767 1.054 6.172 1.054 10.214zm21.382 21.746v-7.578h10.74V87.149l-9.555 3.756-1.384-7.974 13.18-4.48h6.524v35.255h9.357v7.578zm71.332-21.483c0-3.03-.131-5.513-.395-7.446-.264-1.933-.681-3.46-1.252-4.58s-1.274-1.89-2.109-2.306c-.835-.418-1.823-.626-2.965-.626-.967 0-1.856.23-2.67.691-.812.462-1.515 1.242-2.108 2.34-.593 1.098-1.054 2.592-1.384 4.48-.33 1.89-.494 4.24-.494 7.052 0 2.987.12 5.47.362 7.446.242 1.977.627 3.548 1.154 4.712.527 1.164 1.219 1.988 2.075 2.471.857.484 1.9.725 3.13.725 1.055 0 2-.252 2.834-.758.835-.505 1.527-1.35 2.076-2.537.55-1.186.978-2.734 1.285-4.645.308-1.912.461-4.25.461-7.019zm9.094-.263c0 3.954-.439 7.358-1.318 10.214-.878 2.856-2.064 5.184-3.558 6.985-1.494 1.801-3.207 3.13-5.14 3.987a14.958 14.958 0 0 1-6.129 1.285c-2.416 0-4.58-.362-6.49-1.087-1.912-.725-3.526-1.944-4.844-3.658-1.318-1.713-2.329-3.997-3.032-6.853-.702-2.856-1.054-6.436-1.054-10.741 0-3.735.396-6.975 1.186-9.72.791-2.746 1.9-5.03 3.328-6.854 1.428-1.823 3.13-3.174 5.107-4.052 1.977-.88 4.152-1.318 6.524-1.318 2.416 0 4.58.384 6.491 1.153 1.911.769 3.526 2.01 4.844 3.723 1.318 1.713 2.328 3.954 3.03 6.722.704 2.767 1.055 6.172 1.055 10.214zm22.584 21.746v-7.578h10.741V87.149l-9.555 3.756-1.384-7.974 13.18-4.48h6.524v35.255h9.357v7.578z" fill="#1AF" fill-rule="evenodd"/></svg>